# Blender 3.5.0
# www.blender.org
mtllib car.mtl
o Cube
v 0.994781 -0.014328 -0.555767
v 0.812667 -0.198521 -0.373772
v 1.001177 -0.010852 0.572710
v 0.821360 -0.191006 0.389361
v -1.025106 -0.000723 -0.482452
v -1.025106 -0.624696 -0.373213
v -1.016336 -0.000723 0.509528
v -1.016336 -0.617164 0.327543
v 0.045455 -0.836243 -0.609695
v -0.234878 0.995618 0.015994
v 0.045892 -0.837465 0.595921
v -0.235316 0.995618 -0.021748
v 0.367277 -0.672738 0.437783
v 1.008710 -0.011148 -0.575368
v 0.368769 -0.658849 -0.495084
v 0.990741 -0.009191 0.570086
v -0.269105 -0.996984 -0.619955
v -0.550274 0.995618 0.028594
v -0.269503 -0.996984 0.601953
v -0.557704 0.995618 -0.042896
v 1.005761 -0.014189 -0.577887
v -1.016336 -0.000683 0.507062
v 0.991180 -0.007531 0.568790
v -1.025106 -0.000683 -0.481009
v 0.045455 -0.000683 -0.995716
v 0.045892 -0.000683 0.989962
v 0.347306 -0.000683 0.989962
v 0.368769 -0.000683 -0.990586
v -0.276934 -0.000683 -0.995716
v -0.269503 -0.000683 0.989962
v -0.476034 -0.996984 -0.526864
v -1.019265 0.006639 0.510465
v -0.478034 -0.996984 0.491707
v -1.017265 0.006639 -0.481009
v -1.019623 -0.000683 -0.481009
v -1.021623 -0.000683 0.512429
vn -0.9488 0.3159 0.0032
vn -0.4690 0.2109 -0.8576
vn 0.9938 -0.1111 -0.0088
vn 0.7240 -0.6897 -0.0057
vn -0.9704 0.2416 -0.0046
vn 0.5679 0.1235 -0.8138
vn 0.0235 0.6984 -0.7154
vn 0.4532 -0.8914 -0.0005
vn 0.2745 0.7494 0.6025
vn 0.6315 0.7753 0.0081
vn 0.8228 -0.5683 0.0055
vn -0.4839 -0.4555 -0.7472
vn 0.2712 0.7505 -0.6027
vn 0.4684 -0.8835 -0.0060
vn -0.0000 -1.0000 -0.0000
vn -0.4805 0.5300 -0.6987
vn 0.0143 0.6987 0.7153
vn -0.0000 1.0000 -0.0000
vn 0.1074 -0.3901 0.9145
vn -0.5179 -0.2773 -0.8092
vn 0.2864 -0.4870 -0.8251
vn 0.5197 -0.6060 0.6022
vn 0.3348 -0.4974 0.8003
vn 0.1110 -0.3812 -0.9178
vn 0.5392 -0.6077 -0.5830
vn 0.7121 -0.7021 0.0074
vn -0.9999 -0.0006 0.0104
vn -0.4556 -0.2593 0.8516
vn -0.4975 -0.3025 0.8130
vn -0.3595 -0.1558 -0.9201
vn 0.2473 -0.2648 -0.9321
vn -0.5689 -0.8224 0.0058
vn -0.4452 0.5527 0.7045
vn -0.9052 0.4250 0.0046
vt 0.625000 0.500000
vt 0.375000 0.500000
vt 0.625000 0.750000
vt 0.375000 0.750000
vt 0.875000 0.500000
vt 0.625000 0.250000
vt 0.375000 0.250000
vt 0.125000 0.500000
vt 0.875000 0.750000
vt 0.625000 1.000000
vt 0.625000 0.000000
vt 0.375000 0.000000
vt 0.375000 1.000000
vt 0.125000 0.750000
vt 0.250000 0.500000
vt 0.375000 0.375000
vt 0.625000 0.875000
vt 0.750000 0.750000
vt 0.250000 0.750000
vt 0.375000 0.875000
vt 0.625000 0.375000
vt 0.750000 0.500000
vt 0.312500 0.750000
vt 0.375000 0.812500
vt 0.687500 0.500000
vt 0.625000 0.437500
vt 0.312500 0.500000
vt 0.375000 0.437500
vt 0.687500 0.750000
vt 0.625000 0.812500
vt 0.187500 0.500000
vt 0.375000 0.312500
vt 0.625000 0.937500
vt 0.812500 0.750000
vt 0.187500 0.750000
vt 0.375000 0.937500
vt 0.625000 0.312500
vt 0.812500 0.500000
vt 0.500000 0.500000
vt 0.500000 0.000000
vt 0.500000 1.000000
vt 0.500000 0.750000
vt 0.500000 0.250000
vt 0.500000 0.375000
vt 0.500000 0.875000
vt 0.500000 0.812500
vt 0.500000 0.437500
vt 0.500000 0.312500
vt 0.500000 0.937500
vt 0.375000 0.281250
vt 0.156250 0.500000
vt 0.625000 0.968750
vt 0.843750 0.750000
vt 0.375000 0.968750
vt 0.156250 0.750000
vt 0.625000 0.281250
vt 0.843750 0.500000
vt 0.500000 0.281250
vt 0.500000 0.968750
s 0
usemtl Material
f 34/57/1 5/5/1 7/9/1 32/53/1
f 36/59/2 32/52/2 7/10/2 22/41/2
f 22/40/3 7/11/3 5/6/3 24/43/3
f 15/27/4 2/2/4 4/4/4 13/23/4
f 21/39/5 1/1/5 3/3/5 23/42/5
f 28/47/6 14/26/6 1/1/6 21/39/6
f 29/48/7 20/37/7 12/21/7 25/44/7
f 17/31/8 9/15/8 11/19/8 19/35/8
f 27/46/9 16/30/9 10/17/9 26/45/9
f 14/25/10 12/22/10 10/18/10 16/29/10
f 1/1/11 14/25/11 16/29/11 3/3/11
f 23/42/12 3/3/12 16/30/12 27/46/12
f 25/44/13 12/21/13 14/26/13 28/47/13
f 9/15/14 15/27/14 13/23/14 11/19/14
f 31/51/15 17/31/15 19/35/15 33/55/15
f 35/58/16 34/56/16 20/37/16 29/48/16
f 26/45/17 10/17/17 18/33/17 30/49/17
f 12/22/18 20/38/18 18/34/18 10/18/18
f 11/20/19 26/45/19 30/49/19 19/36/19
f 31/50/20 35/58/20 29/48/20 17/32/20
f 9/16/21 25/44/21 28/47/21 15/28/21
f 4/4/22 23/42/22 27/46/22 13/24/22
f 13/24/23 27/46/23 26/45/23 11/20/23
f 17/32/24 29/48/24 25/44/24 9/16/24
f 15/28/25 28/47/25 21/39/25 2/2/25
f 2/2/26 21/39/26 23/42/26 4/4/26
f 8/12/27 22/40/27 24/43/27 6/7/27
f 33/54/28 36/59/28 22/41/28 8/13/28
f 19/36/29 30/49/29 36/59/29 33/54/29
f 6/7/30 24/43/30 35/58/30 31/50/30
f 24/43/31 5/6/31 34/56/31 35/58/31
f 6/8/32 31/51/32 33/55/32 8/14/32
f 30/49/33 18/33/33 32/52/33 36/59/33
f 20/38/34 34/57/34 32/53/34 18/34/34
